<svg width="72" height="72" fill="none" xmlns="http://www.w3.org/2000/svg"><rect width="72" height="72" rx="36" fill="#0901FF"/><path fill-rule="evenodd" clip-rule="evenodd" d="M54.787 28.888l-7.74-10.45a1.083 1.083 0 00-1.742 0l-7.74 10.45a1.084 1.084 0 00.87 1.73h2.787v23.298c0 .6.485 1.084 1.084 1.084h7.74c.6 0 1.084-.485 1.084-1.084V30.618h2.786a1.084 1.084 0 00.87-1.73zm-25.06 12.333h1.586v12.695c0 .38.066.744.186 1.084h-4.675a1.084 1.084 0 01-1.084-1.084v-8.708a3.992 3.992 0 013.987-3.987zm-7.74 5.805h1.585v6.89c0 .38.066.744.187 1.084h-4.675A1.084 1.084 0 0118 53.916v-2.903a3.991 3.991 0 013.986-3.987zm15.48-11.61h1.585v18.5c0 .38.067.744.187 1.084h-4.675a1.084 1.084 0 01-1.084-1.084V39.402a3.991 3.991 0 013.987-3.986z" fill="#fff"/></svg>