<svg width="24" height="24" fill="none" xmlns="http://www.w3.org/2000/svg"><path d="M12 16.656a4.661 4.661 0 01-4.656-4.657A4.66 4.66 0 0112 7.344 4.66 4.66 0 0116.654 12 4.66 4.66 0 0112 16.656zM12 0C5.382 0 0 5.383 0 12c0 6.616 5.383 12 12 12a.896.896 0 100-1.793C6.371 22.207 1.792 17.628 1.792 12c0-5.627 4.579-10.206 10.206-10.206 5.63 0 10.207 4.579 10.207 10.206v2.777a1.88 1.88 0 01-1.88 1.88 1.88 1.88 0 01-1.879-1.88V12A6.455 6.455 0 0012 5.551 6.455 6.455 0 005.551 12 6.456 6.456 0 0012 18.45a6.435 6.435 0 004.926-2.294 3.677 3.677 0 003.401 2.294 3.676 3.676 0 003.672-3.673V12C24 5.383 18.619 0 12 0z" fill="#0901FF"/></svg>