<svg width="30" height="32" fill="none" xmlns="http://www.w3.org/2000/svg"><path fill-rule="evenodd" clip-rule="evenodd" d="M19.193 21.944v7.967h2.616V2.089H8.19v27.822h2.616v-7.967c0-.461.373-.836.833-.836h6.72c.46 0 .833.375.833.836zm-1.666.836h-5.055v7.13h5.056v-7.13zm6.363 7.13h5.07c.575 0 1.04.467 1.04 1.045 0 .578-.467 1.045-1.04 1.045H1.04C.468 32 0 31.533 0 30.955c0-.576.467-1.044 1.04-1.044h5.07V1.045C6.11.468 6.575 0 7.15 0h15.7c.574 0 1.04.468 1.04 1.045V29.91zM20.622 5.96a.834.834 0 01-.832.835h-3.957v3.296h3.957c.46 0 .832.374.832.836a.834.834 0 01-.832.835h-3.957v3.402h3.957c.46 0 .832.375.832.836a.834.834 0 01-.832.836h-9.58A.834.834 0 019.378 16c0-.461.373-.836.832-.836h3.957v-3.402H10.21a.834.834 0 01-.832-.835c0-.462.373-.836.832-.836h3.957V6.795H10.21a.834.834 0 01-.832-.835c0-.462.373-.836.832-.836h9.58c.46 0 .832.374.832.836z" fill="#0901FF"/></svg>