<svg width="23" height="24" fill="none" xmlns="http://www.w3.org/2000/svg"><path fill-rule="evenodd" clip-rule="evenodd" d="M19.901 3.145A10.442 10.442 0 0012.416 0a.844.844 0 00-.838.85c0 .47.374.851.838.851a8.79 8.79 0 016.298 2.646 9.037 9.037 0 012.609 6.388c0 .471.374.851.838.851.463 0 .839-.38.839-.85a10.737 10.737 0 00-3.099-7.591zm-3.45 7.592c0 .469.375.85.84.85.462 0 .838-.38.838-.85 0-3.194-2.562-5.793-5.711-5.793a.844.844 0 00-.84.85c0 .47.375.851.84.851 2.223-.001 4.032 1.835 4.034 4.092zm-4.097 5.695c.314-.463.965-1.425 2.241-1.358 1.342.073 4.891 2.718 5.352 3.98.206.56.209 1.15.009 1.753-.452 1.361-1.257 2.342-2.328 2.841a3.78 3.78 0 01-1.614.352 4.922 4.922 0 01-1.873-.395c-3.195-1.322-5.99-3.17-8.311-5.492l-.017-.017C3.52 15.742 1.695 12.902.391 9.656-.115 8.396-.13 7.172.346 6.12c.491-1.086 1.46-1.903 2.8-2.36.596-.203 1.178-.2 1.732.01 1.245.464 3.852 4.064 3.925 5.422.065 1.3-.881 1.957-1.34 2.276l-.002.001a.83.83 0 01-1.166-.222.858.858 0 01.22-1.183c.538-.373.625-.543.612-.78-.085-.73-2.18-3.629-2.837-3.92-.192-.073-.38-.07-.611.009-.89.305-1.517.808-1.81 1.457-.28.617-.253 1.374.072 2.188 1.218 3.033 2.919 5.682 5.052 7.876l.003.003c2.163 2.169 4.78 3.896 7.774 5.135.802.33 1.547.356 2.155.074.64-.298 1.137-.933 1.437-1.837.079-.233.081-.425.009-.62-.287-.665-3.145-2.79-3.87-2.877-.227-.012-.395.075-.764.622a.83.83 0 01-1.166.223.859.859 0 01-.218-1.183l.002-.001z" fill="#0901FF"/></svg>